<?xml version="1.0" standalone="no"?>
<!DOCTYPE svg PUBLIC "-//W3C//DTD SVG 20010904//EN"
 "http://www.w3.org/TR/2001/REC-SVG-20010904/DTD/svg10.dtd">
<svg version="1.0" xmlns="http://www.w3.org/2000/svg"
 width="450pt" viewBox="0 0 592.000000 156.000000"
 preserveAspectRatio="xMidYMid meet">

<g transform="translate(0.000000,156.000000) scale(0.100000,-0.100000)"
fill="#cf4444" stroke="none">
<path d="M2740 1417 c-42 -34 -74 -111 -95 -229 -21 -114 -30 -426 -16 -523
23 -154 64 -235 121 -235 33 0 55 29 85 109 11 30 25 56 30 58 6 2 19 -10 28
-27 19 -32 71 -65 87 -55 6 4 6 12 0 23 -6 9 -21 55 -35 102 -22 78 -24 99
-21 245 2 103 10 186 21 232 22 96 19 118 -20 118 -26 0 -30 4 -37 38 -12 59
-46 116 -81 137 -37 23 -46 24 -67 7z m72 -81 c25 -47 36 -224 26 -444 -7
-162 -27 -273 -63 -343 -20 -38 -33 -37 -50 5 -51 122 -32 645 29 790 14 33
18 37 32 26 8 -8 20 -23 26 -34z"/>
<path d="M1956 1381 c-4 -6 -13 -8 -21 -5 -8 4 -27 -7 -44 -23 -37 -38 -45
-89 -38 -237 7 -156 34 -212 137 -279 30 -20 35 -28 35 -62 0 -38 -1 -40 -32
-41 -39 0 -53 -11 -33 -24 36 -23 101 -3 119 37 17 36 8 53 -54 107 -61 53
-79 82 -95 151 -19 83 -11 315 10 315 4 0 10 -35 14 -77 6 -78 25 -123 51
-123 12 0 15 16 14 83 -1 135 -10 181 -36 185 -11 2 -24 -1 -27 -7z"/>
<path d="M3957 1383 c-4 -3 -7 -25 -7 -47 0 -68 -2 -69 -144 -65 -110 4 -126
2 -126 -12 0 -41 70 -69 174 -69 58 0 85 -4 88 -12 2 -7 1 -85 -2 -173 -3 -88
-5 -252 -4 -365 1 -171 4 -211 18 -238 37 -72 41 -47 44 276 1 169 5 353 8
410 l6 102 71 0 c52 0 82 -6 115 -21 33 -16 46 -19 55 -10 15 15 0 39 -41 67
-22 15 -56 24 -104 29 -40 4 -79 12 -85 17 -7 6 -13 26 -13 45 0 55 -29 91
-53 66z"/>
<path d="M1447 1373 c-4 -3 -7 -14 -7 -23 0 -15 -7 -17 -43 -13 -36 4 -46 1
-71 -23 -79 -79 -105 -266 -76 -538 11 -100 17 -126 59 -259 55 -173 157 -251
239 -182 39 33 56 102 50 204 -5 86 -16 115 -37 101 -11 -6 -17 -41 -22 -125
-8 -135 -22 -164 -60 -129 -54 48 -112 222 -136 404 -10 82 -11 354 0 399 11
47 35 91 54 98 25 10 41 -22 48 -100 14 -161 32 -206 76 -192 22 7 23 19 5
150 -2 11 -6 61 -10 110 -4 50 -10 98 -12 108 -5 17 -44 24 -57 10z"/>
<path d="M1603 1353 c-36 -5 -41 -14 -19 -32 10 -9 44 -10 118 -5 104 7 148
21 111 35 -19 8 -154 9 -210 2z"/>
<path d="M3040 1008 c0 -172 4 -330 9 -351 9 -37 45 -87 63 -87 4 0 5 21 1 47
-6 43 -5 46 13 39 42 -18 52 -17 78 6 35 31 56 110 57 221 0 73 -3 94 -23 130
-28 50 -68 73 -99 57 -11 -7 -23 -9 -26 -7 -2 3 -7 52 -10 109 -5 105 -19 148
-48 148 -13 0 -15 -43 -15 -312z m153 -28 c11 -42 3 -234 -12 -272 -20 -54
-65 -23 -74 52 -3 25 -2 77 2 116 14 125 62 185 84 104z"/>
<path d="M1134 1289 c-2 -3 -29 -9 -61 -13 -70 -8 -224 -45 -239 -57 -6 -5
-19 -7 -28 -3 -9 3 -16 2 -16 -4 0 -5 -12 -12 -27 -15 -16 -4 -35 -11 -43 -16
-13 -9 -12 -12 5 -26 23 -17 20 -18 180 24 66 18 166 40 223 50 100 18 132 32
132 55 0 13 -118 17 -126 5z"/>
<path d="M1632 1258 c-14 -14 -16 -67 -2 -102 13 -35 40 -34 40 2 0 15 4 34
10 42 8 13 10 13 14 0 11 -30 26 -106 26 -132 0 -24 -2 -26 -38 -21 -30 4 -41
1 -57 -17 -17 -19 -20 -36 -20 -134 0 -91 4 -118 20 -150 24 -48 44 -61 78
-52 33 8 35 23 5 28 -29 4 -35 32 -37 158 -1 100 7 132 27 108 17 -21 34 -145
26 -194 -4 -31 -2 -49 7 -60 8 -9 21 -37 29 -62 15 -45 59 -90 78 -78 6 4 5
28 -3 68 -7 35 -16 95 -20 133 -28 311 -50 422 -91 454 -30 23 -74 27 -92 9z"/>
<path d="M3297 1258 c-33 -26 -25 -42 22 -39 29 2 41 -1 37 -8 -4 -6 -23 -11
-42 -11 -35 0 -44 -16 -22 -38 16 -16 73 -15 85 1 15 18 23 60 15 73 -9 14
-47 34 -64 34 -8 0 -22 -6 -31 -12z"/>
<path d="M2134 1208 c-10 -30 -10 -60 0 -76 13 -22 34 -13 41 18 14 62 42 23
52 -70 6 -63 4 -67 -29 -49 -57 31 -98 -32 -98 -150 0 -94 8 -126 39 -157 21
-21 32 -25 60 -20 28 4 38 0 61 -24 45 -48 53 -40 45 44 -3 41 -6 119 -6 173
1 149 -16 245 -50 293 -25 35 -34 40 -68 40 -32 0 -41 -4 -47 -22z m88 -309
c14 -83 4 -159 -22 -159 -29 0 -43 59 -36 152 3 44 9 85 12 90 13 20 36 -21
46 -83z"/>
<path d="M3518 1173 c-30 -35 -60 -106 -74 -180 -19 -98 -19 -285 0 -321 27
-52 76 -79 111 -60 23 13 45 69 45 113 0 46 -16 45 -25 -2 -8 -42 -22 -73 -33
-73 -35 1 -55 89 -44 195 l7 70 50 8 c27 4 51 9 52 11 11 11 23 120 17 160
-10 78 -69 121 -106 79z m49 -120 c-3 -43 -6 -79 -7 -80 0 -2 -11 -3 -25 -3
-28 0 -30 7 -14 65 31 119 54 128 46 18z"/>
<path d="M2340 1147 c0 -20 22 -27 112 -34 67 -5 78 -4 78 10 0 22 -5 24 -102
32 -74 6 -88 4 -88 -8z"/>
<path d="M595 1141 c-6 -6 -46 -26 -89 -45 -43 -18 -86 -40 -95 -48 -9 -8 -26
-18 -36 -22 -20 -8 -20 -8 0 -16 40 -17 91 -11 130 16 21 14 69 37 107 51 51
19 68 30 68 44 0 11 -7 19 -17 19 -10 0 -27 3 -38 6 -11 3 -25 0 -30 -5z"/>
<path d="M3816 1122 c-3 -10 -22 -36 -42 -57 -31 -34 -38 -37 -55 -27 -10 7
-23 12 -28 12 -4 0 -8 -104 -7 -234 1 -211 3 -236 19 -254 10 -11 26 -22 35
-24 16 -4 17 12 17 191 0 144 4 205 14 229 20 47 31 39 31 -22 0 -63 7 -86 25
-86 16 0 29 96 30 210 0 62 -3 75 -17 78 -9 2 -19 -5 -22 -16z"/>
<path d="M4960 1115 c-90 -26 -276 -73 -325 -82 -46 -7 -50 -10 -47 -33 6 -59
13 -405 8 -425 -5 -20 -11 -22 -49 -18 -39 5 -46 2 -70 -27 -40 -47 -38 -101
5 -131 44 -32 110 -34 136 -6 44 49 48 88 33 404 -1 12 -9 24 -18 26 -17 4
-17 5 0 6 9 0 17 6 17 12 0 5 -4 7 -10 4 -5 -3 -11 -3 -11 2 -6 37 -6 60 1 68
5 6 10 24 12 40 3 30 4 30 113 52 60 13 123 27 139 33 56 19 54 28 55 -220 l1
-230 -48 0 c-58 0 -70 -7 -82 -49 -17 -62 21 -108 100 -118 47 -7 66 6 88 57
12 28 16 93 17 320 3 275 0 331 -14 329 -3 0 -26 -6 -51 -14z"/>
<path d="M3296 1074 c-10 -26 -7 -471 4 -498 5 -14 16 -26 23 -26 11 0 16 25
21 103 9 144 10 413 2 426 -11 16 -43 13 -50 -5z"/>
<path d="M1045 1070 c-22 -5 -57 -16 -77 -24 -21 -9 -46 -16 -57 -16 -25 0
-38 -20 -20 -31 34 -23 271 32 277 64 3 14 -4 17 -40 16 -24 -1 -61 -5 -83 -9z"/>
<path d="M4160 1065 c-15 -18 -24 -86 -16 -119 7 -30 36 -35 36 -7 0 10 7 36
17 57 16 38 16 38 24 14 9 -33 11 -163 2 -158 -5 2 -20 10 -36 18 -26 12 -29
11 -57 -15 -73 -69 -94 -296 -34 -361 25 -26 41 -28 100 -9 18 5 23 2 28 -22
9 -32 33 -63 51 -63 13 0 18 122 19 435 1 136 -1 154 -21 191 -12 23 -29 44
-38 48 -28 10 -62 7 -75 -9z m40 -286 c19 -45 16 -158 -4 -201 -39 -81 -66
-74 -66 16 0 97 27 216 49 216 5 0 14 -14 21 -31z"/>
<path d="M5297 1053 c-26 -14 -73 -29 -105 -33 -111 -15 -191 -53 -130 -62 82
-12 331 66 345 108 7 21 -62 13 -110 -13z"/>
<path d="M680 1026 c0 -24 -3 -63 -6 -88 -6 -42 -8 -44 -38 -43 -28 1 -106
-32 -130 -56 -26 -24 -36 -8 -36 54 l0 64 -32 -2 c-18 -2 -46 -8 -63 -15 -58
-23 -217 -70 -224 -66 -4 3 -13 1 -21 -4 -12 -7 -12 -25 -2 -117 18 -166 17
-200 -10 -208 -60 -19 -88 -84 -51 -120 12 -13 26 -15 52 -11 20 3 44 6 53 6
10 0 28 10 39 21 21 21 21 29 18 206 l-4 183 81 29 81 28 7 -81 c3 -45 6 -109
6 -143 0 -60 -1 -62 -29 -68 -86 -19 -87 -125 -2 -125 57 0 103 30 116 76 9
33 15 40 40 42 36 4 135 69 135 89 0 10 -9 12 -32 8 -37 -7 -70 -26 -110 -63
-16 -14 -28 -24 -29 -21 0 2 -2 50 -5 105 -4 73 -2 104 6 109 7 4 15 3 19 -3
7 -12 139 43 153 63 4 5 8 -6 8 -25 1 -19 3 -115 6 -212 l4 -178 -68 0 c-55 0
-74 -4 -104 -25 -71 -48 -73 -134 -6 -190 36 -30 57 -31 133 -5 119 41 130 71
120 326 l-7 181 30 -5 c38 -5 104 16 99 31 -5 17 -89 16 -105 0 -18 -18 -35
-16 -28 3 3 9 6 42 6 75 0 32 4 59 9 59 5 0 50 -40 99 -89 62 -62 92 -100 97
-122 5 -23 10 -28 16 -18 6 9 9 10 9 2 0 -6 9 -11 20 -10 17 1 20 8 20 47 0
90 -65 181 -215 305 -36 30 -59 40 -87 42 l-38 1 0 -42z m-513 -358 c-3 -8 -6
-5 -6 6 -1 11 2 17 5 13 3 -3 4 -12 1 -19z"/>
<path d="M4328 994 c-15 -14 -8 -33 13 -39 53 -17 201 -28 218 -16 30 20 3 38
-66 45 -37 3 -88 9 -113 12 -25 3 -48 2 -52 -2z"/>
<path d="M2370 957 c0 -25 25 -37 77 -37 45 0 53 3 53 19 0 14 -10 20 -37 25
-60 9 -93 7 -93 -7z"/>
<path d="M4796 960 c-94 -12 -118 -18 -110 -32 5 -7 37 -9 103 -5 109 7 143
15 138 31 -5 14 -44 16 -131 6z"/>
<path d="M1055 875 c-22 -8 -41 -15 -42 -15 -2 0 -3 -4 -3 -10 0 -11 71 -12
110 -1 14 4 26 15 28 24 4 22 -36 22 -93 2z"/>
<path d="M5320 865 c-25 -13 -53 -24 -62 -24 -9 -1 -19 -5 -22 -10 -3 -5 -23
-12 -43 -15 -125 -22 -170 -39 -143 -56 58 -37 405 58 405 111 0 25 -83 21
-135 -6z"/>
<path d="M5575 837 c-4 -19 -5 -126 -3 -239 l3 -205 -60 1 c-69 1 -93 -14
-119 -78 -15 -35 -15 -41 1 -73 19 -40 55 -65 120 -83 38 -11 49 -11 78 3 56
27 68 64 67 202 -1 66 -4 159 -7 208 -4 52 -3 87 3 87 15 0 97 -93 110 -126
13 -31 37 -40 60 -21 8 7 12 5 12 -7 0 -10 5 -14 11 -10 8 4 10 27 6 65 -6 64
-36 117 -106 183 -23 21 -56 59 -73 84 -17 25 -33 41 -36 34 -2 -7 -9 -9 -15
-5 -30 19 -46 12 -52 -20z"/>
<path d="M2374 799 c-10 -17 7 -26 58 -31 54 -6 81 4 52 20 -32 16 -102 23
-110 11z"/>
<path d="M4350 792 c0 -14 20 -20 115 -34 76 -11 108 -8 92 8 -17 17 -207 41
-207 26z"/>
<path d="M1443 779 c-55 -16 -39 -30 29 -27 50 2 63 6 66 21 3 13 -3 17 -30
16 -18 0 -48 -5 -65 -10z"/>
<path d="M4680 756 c0 -7 14 -16 31 -20 43 -8 179 -6 204 3 41 16 -20 31 -129
31 -83 0 -106 -3 -106 -14z"/>
<path d="M1060 685 c-11 -13 -8 -15 21 -15 43 0 79 10 79 21 0 16 -87 10 -100
-6z"/>
<path d="M5325 656 c-34 -13 -80 -27 -103 -31 -23 -4 -44 -11 -48 -16 -3 -5
-8 -7 -12 -5 -12 7 -106 -20 -110 -32 -11 -33 196 -6 303 39 17 7 35 14 40 14
6 1 23 7 38 13 16 7 33 12 38 12 15 0 10 17 -7 24 -30 11 -79 5 -139 -18z"/>
<path d="M2036 639 c-11 -7 -36 -9 -60 -6 -44 6 -73 -4 -62 -21 8 -13 285 -15
305 -3 22 14 -16 29 -94 35 -46 4 -77 3 -89 -5z"/>
<path d="M915 630 c-39 -10 -61 -20 -107 -49 -82 -50 -13 -49 85 2 31 17 57
36 57 44 0 7 -1 13 -2 12 -2 -1 -16 -5 -33 -9z"/>
<path d="M2427 623 c-20 -19 -5 -33 38 -33 46 0 54 7 33 28 -13 13 -60 16 -71
5z"/>
<path d="M4344 599 c-11 -18 17 -29 74 -29 59 0 68 13 21 29 -41 14 -86 14
-95 0z"/>
<path d="M4690 566 c0 -13 41 -26 86 -26 26 0 30 10 12 28 -17 17 -98 16 -98
-2z"/>
<path d="M3125 501 c-16 -3 -30 -10 -30 -15 0 -8 81 -32 115 -34 19 -2 309
-70 330 -78 8 -3 26 -8 40 -10 14 -3 61 -14 105 -25 44 -12 123 -30 175 -40
130 -27 139 -29 185 -40 54 -14 300 -59 350 -63 22 -3 83 -9 135 -16 127 -15
586 -16 670 -1 36 6 72 12 80 14 55 10 133 47 98 47 -9 0 -18 5 -20 11 -5 16
-39 17 -73 3 -16 -6 -84 -17 -150 -23 -66 -6 -138 -13 -160 -16 -64 -7 -481
14 -590 30 -55 8 -161 26 -235 39 -74 14 -155 25 -180 25 -31 -1 -60 6 -92 23
-25 14 -71 29 -102 32 -31 4 -58 12 -61 17 -4 5 -15 9 -26 9 -24 0 -367 76
-429 94 -65 20 -101 25 -135 17z"/>
<path d="M1095 464 c-44 -19 -87 -41 -95 -48 -8 -8 -37 -25 -65 -39 -138 -69
-388 -297 -326 -297 6 0 13 5 16 10 3 6 13 10 21 10 9 0 50 32 92 71 99 92
242 187 362 238 100 44 127 62 116 80 -11 17 -35 12 -121 -25z"/>
<path d="M5416 491 c-10 -15 -212 -59 -324 -70 -57 -6 -113 -16 -124 -22 -14
-7 -44 -9 -87 -4 -101 12 -230 10 -242 -2 -8 -8 -3 -16 20 -27 27 -14 62 -16
244 -12 256 5 248 5 263 17 7 5 35 8 63 5 34 -4 53 -1 58 7 5 7 53 26 107 42
55 17 101 35 103 41 2 7 -10 17 -28 23 -39 13 -46 14 -53 2z"/>
<path d="M4340 422 c0 -8 65 -32 85 -32 5 0 0 9 -10 20 -18 20 -75 28 -75 12z"/>
</g>
</svg>
