<svg id="svg" xmlns="http://www.w3.org/2000/svg" xmlns:xlink="http://www.w3.org/1999/xlink" width="200" viewBox="0, 0, 400,108.0397470641373"><g id="svgg"><path id="path0" d="M157.904 0.400 C 145.434 0.946,145.213 1.090,149.406 5.928 C 150.468 7.153,150.553 8.256,149.710 9.864 C 147.230 14.592,146.527 32.441,148.361 44.087 C 149.811 53.296,155.114 65.730,159.273 69.674 C 163.503 73.686,169.505 72.305,171.778 66.797 C 172.136 65.930,172.904 64.164,173.485 62.873 C 174.066 61.581,174.698 59.658,174.891 58.599 C 175.083 57.540,175.323 56.540,175.424 56.376 C 177.276 53.380,177.460 36.373,175.729 28.184 C 173.833 19.216,173.529 18.306,169.578 9.762 C 168.251 6.893,168.247 6.869,168.855 5.594 C 169.192 4.889,169.467 3.924,169.467 3.451 C 169.467 2.977,169.655 2.527,169.885 2.450 C 170.144 2.364,170.214 1.954,170.070 1.379 C 169.695 -0.113,169.675 -0.115,157.904 0.400 M129.901 2.168 C 129.778 2.367,128.314 2.529,126.649 2.529 C 124.983 2.529,123.519 2.692,123.397 2.891 C 123.274 3.089,122.136 3.252,120.867 3.252 C 119.599 3.252,118.461 3.415,118.338 3.613 C 118.215 3.812,117.727 3.975,117.254 3.975 C 116.061 3.975,115.978 4.246,116.368 6.892 C 116.957 10.881,117.742 18.785,118.000 23.306 C 118.136 25.691,118.305 27.743,118.375 27.867 C 118.446 27.990,118.590 29.453,118.695 31.119 C 118.800 32.784,119.050 36.748,119.250 39.928 C 119.604 45.546,119.938 49.624,120.686 57.453 C 120.885 59.539,121.060 63.452,121.075 66.148 C 121.104 71.306,121.159 71.575,122.313 72.173 C 122.877 72.466,132.281 72.081,132.865 71.741 C 132.906 71.717,132.636 70.518,132.265 69.075 C 131.894 67.632,131.322 64.468,130.995 62.043 C 130.667 59.618,130.258 57.145,130.084 56.549 C 129.783 55.511,129.536 53.302,129.197 48.600 C 129.111 47.407,128.939 45.050,128.815 43.360 C 128.595 40.356,129.288 37.908,130.347 37.952 C 131.453 37.998,132.554 39.874,133.658 43.592 C 134.426 46.178,134.545 46.699,135.662 52.394 C 137.868 63.631,138.730 66.016,141.879 69.594 C 143.292 71.200,147.425 71.510,147.425 70.011 C 147.425 69.861,147.629 69.733,147.877 69.727 C 149.064 69.697,150.741 65.561,151.180 61.578 C 151.445 59.173,150.441 57.453,148.771 57.453 C 147.525 57.453,146.121 55.149,145.358 51.852 C 143.002 41.668,142.378 39.658,140.316 35.623 C 139.411 33.851,138.523 32.225,138.344 32.009 C 138.164 31.793,137.606 31.129,137.103 30.533 C 136.492 29.808,136.242 29.150,136.347 28.546 C 136.578 27.215,137.961 23.753,138.360 23.507 C 139.257 22.952,141.283 14.878,141.283 11.859 C 141.283 8.179,138.818 3.252,136.978 3.252 C 136.757 3.252,136.293 3.109,135.948 2.935 C 133.866 1.883,130.352 1.437,129.901 2.168 M191.147 2.474 C 191.147 2.841,191.469 3.532,191.863 4.010 C 192.257 4.487,192.728 5.056,192.909 5.273 C 194.239 6.869,194.390 7.807,193.634 9.801 C 191.036 16.658,190.503 18.794,189.541 26.182 C 188.306 35.681,189.645 53.621,191.908 57.880 C 192.086 58.215,192.231 58.750,192.231 59.070 C 192.231 60.932,196.178 67.622,198.228 69.234 C 198.960 69.809,199.745 70.443,199.974 70.641 C 201.057 71.584,202.163 71.906,204.310 71.906 C 205.593 71.906,206.743 71.743,206.865 71.545 C 206.988 71.346,207.397 71.183,207.775 71.183 C 210.224 71.183,214.950 63.385,215.549 58.356 C 215.667 57.362,215.925 55.818,216.122 54.923 C 216.604 52.735,217.449 44.023,217.237 43.426 C 217.049 42.898,212.073 43.004,209.395 43.594 L 207.949 43.912 207.708 46.798 C 207.188 53.024,205.114 59.621,203.677 59.621 C 203.080 59.621,200.751 54.844,200.241 52.575 C 199.075 47.380,198.731 45.323,198.348 41.249 C 197.776 35.150,198.239 26.794,199.512 20.235 C 200.714 14.047,201.956 10.117,202.711 10.117 C 203.381 10.117,204.155 11.309,204.155 12.341 C 204.155 17.089,206.974 22.509,210.257 24.074 C 213.902 25.811,215.374 25.367,214.102 22.915 C 211.996 18.855,211.927 9.790,213.965 4.754 C 214.435 3.592,214.412 3.514,213.369 2.678 L 212.285 1.810 201.716 1.808 C 191.679 1.807,191.147 1.840,191.147 2.474 M218.781 11.609 C 218.934 16.651,219.106 27.525,219.165 35.772 C 219.303 55.387,219.572 57.836,222.132 62.760 C 223.064 64.551,223.085 64.711,222.617 66.373 C 221.538 70.200,222.157 70.428,233.604 70.434 C 243.047 70.439,243.820 70.000,241.026 66.221 C 240.272 65.201,240.267 65.121,240.847 63.569 C 241.177 62.689,241.605 61.156,241.798 60.163 C 241.992 59.169,242.322 57.520,242.533 56.499 C 242.755 55.419,242.841 52.392,242.738 49.272 C 242.641 46.319,242.660 40.813,242.780 37.037 C 242.901 33.261,242.880 29.277,242.734 28.184 C 242.455 26.098,242.374 9.507,242.634 7.949 C 242.717 7.453,242.888 6.701,243.013 6.279 C 243.431 4.866,241.574 3.975,238.210 3.975 C 236.630 3.975,234.823 3.795,234.193 3.575 C 232.800 3.090,231.830 3.685,232.115 4.851 C 233.020 8.549,233.593 55.908,232.761 58.266 C 232.049 60.287,230.901 60.144,229.855 57.904 C 228.924 55.909,228.842 54.306,228.541 32.340 C 228.104 0.336,228.673 3.099,222.441 2.695 L 218.503 2.440 218.781 11.609 M108.401 5.018 C 108.401 5.194,107.304 5.435,105.962 5.552 C 104.621 5.670,102.466 5.941,101.174 6.155 C 99.883 6.369,97.850 6.630,96.658 6.735 C 95.465 6.840,94.335 7.075,94.146 7.257 C 93.958 7.439,92.870 7.588,91.729 7.588 C 90.588 7.588,89.554 7.751,89.431 7.949 C 89.308 8.148,88.895 8.311,88.513 8.311 C 87.598 8.311,87.210 9.873,87.752 11.372 C 87.980 12.002,88.166 13.339,88.166 14.344 C 88.166 18.396,89.301 19.600,91.335 17.706 C 91.762 17.308,92.433 16.983,92.827 16.983 C 93.221 16.983,93.644 16.820,93.767 16.621 C 94.638 15.211,96.506 17.001,96.406 19.151 C 96.349 20.369,97.810 44.437,98.324 50.768 C 98.731 55.776,98.568 71.370,98.080 74.164 L 97.843 75.519 100.571 75.519 C 102.072 75.519,103.400 75.357,103.523 75.158 C 103.646 74.959,104.396 74.797,105.191 74.797 C 106.739 74.797,109.840 74.143,110.318 73.716 C 110.478 73.573,110.209 71.848,109.721 69.881 C 108.752 65.981,108.413 63.597,108.217 59.332 C 108.147 57.802,107.848 52.647,107.551 47.877 C 107.254 43.107,106.995 38.392,106.975 37.398 C 106.955 36.405,106.782 33.966,106.589 31.978 C 105.906 24.922,105.730 15.541,106.280 15.502 C 108.613 15.337,111.653 16.020,111.653 16.710 C 111.653 16.860,111.897 16.983,112.195 16.983 C 112.493 16.983,112.737 17.145,112.737 17.344 C 112.737 17.934,114.086 17.755,114.324 17.134 C 115.128 15.040,114.326 6.280,113.228 5.149 C 112.727 4.634,108.401 4.517,108.401 5.018 M244.081 5.298 C 245.268 8.111,245.325 8.833,245.527 23.365 C 245.830 45.185,245.834 62.240,245.537 66.134 C 245.206 70.461,244.808 70.158,252.213 71.207 C 260.238 72.344,267.710 72.824,267.884 72.215 C 268.756 69.166,269.693 60.399,269.305 58.916 C 269.033 57.872,267.863 57.986,266.712 59.169 C 265.059 60.866,264.386 61.066,260.322 61.066 C 257.223 61.066,256.383 60.951,255.891 60.459 C 255.178 59.746,255.117 10.783,255.826 8.312 C 256.319 6.593,256.282 6.143,255.646 6.143 C 255.348 6.143,255.104 5.998,255.104 5.821 C 255.104 5.342,252.903 5.028,248.097 4.820 C 244.030 4.644,243.816 4.670,244.081 5.298 M264.137 7.190 C 264.137 7.409,263.893 7.588,263.595 7.588 C 263.169 7.588,263.050 8.107,263.038 10.027 C 263.029 11.369,262.954 13.930,262.869 15.718 C 262.655 20.267,263.452 20.708,267.028 18.020 C 272.001 14.283,272.272 14.786,272.242 27.683 C 272.174 55.951,271.476 66.981,269.508 70.898 C 268.645 72.616,268.647 72.629,269.846 72.629 C 270.403 72.629,271.013 72.776,271.201 72.955 C 271.390 73.134,272.276 73.360,273.171 73.455 C 274.065 73.551,276.398 73.827,278.355 74.069 C 282.623 74.597,282.474 74.736,282.224 70.461 C 281.859 64.222,282.092 45.021,282.785 24.300 L 283.005 17.706 284.055 17.706 C 284.632 17.706,285.387 17.850,285.732 18.027 C 286.077 18.204,287.125 18.714,288.060 19.160 C 288.995 19.606,290.086 20.274,290.484 20.645 C 291.402 21.501,292.573 21.512,292.841 20.668 C 293.408 18.881,293.190 10.663,292.572 10.544 C 292.236 10.479,291.960 10.290,291.960 10.123 C 291.960 9.957,291.025 9.730,289.883 9.620 C 287.136 9.356,282.351 8.789,278.771 8.304 C 277.182 8.088,274.011 7.761,271.725 7.577 C 269.440 7.394,266.798 7.142,265.854 7.018 C 264.709 6.868,264.137 6.925,264.137 7.190 M81.481 9.395 C 81.359 9.593,80.373 9.756,79.292 9.756 C 78.211 9.756,77.326 9.919,77.326 10.117 C 77.326 10.316,76.594 10.479,75.700 10.479 C 73.925 10.479,73.769 10.741,74.474 12.533 C 75.432 14.965,76.168 21.833,76.836 34.546 C 77.112 39.812,76.830 40.220,74.917 37.315 C 74.162 36.168,73.413 35.068,73.253 34.869 C 72.401 33.810,69.749 29.006,69.744 28.511 C 69.741 28.194,69.400 26.975,68.987 25.801 C 68.099 23.280,67.227 18.286,67.216 15.657 C 67.204 12.755,67.105 12.647,64.460 12.647 C 63.161 12.647,62.150 12.805,62.150 13.008 C 62.150 13.207,61.708 13.369,61.167 13.369 C 60.626 13.369,59.396 13.735,58.433 14.182 L 56.683 14.995 56.840 17.344 C 56.927 18.636,57.263 22.173,57.586 25.203 C 58.935 37.821,59.342 41.838,59.462 43.722 C 59.532 44.815,59.687 46.103,59.808 46.584 C 59.928 47.065,60.090 49.666,60.168 52.365 C 60.478 63.153,62.078 83.890,62.627 84.250 C 63.107 84.564,66.931 84.189,67.371 83.784 C 67.560 83.611,68.160 83.469,68.705 83.469 C 69.250 83.469,69.796 83.306,69.919 83.107 C 70.042 82.909,70.507 82.746,70.952 82.746 C 72.433 82.746,73.767 81.916,73.566 81.120 C 73.466 80.723,73.044 79.178,72.629 77.687 C 71.789 74.673,71.414 71.776,70.826 63.776 C 70.341 57.176,69.800 51.740,69.389 49.322 C 68.955 46.768,69.388 46.273,70.477 48.080 C 70.965 48.891,71.583 49.790,71.850 50.079 C 72.117 50.368,72.630 51.373,72.989 52.312 C 73.348 53.251,74.240 55.402,74.972 57.091 C 78.304 64.789,79.464 69.597,79.482 75.790 L 79.494 79.855 81.572 79.846 C 83.431 79.838,88.102 78.595,88.765 77.932 C 88.899 77.798,89.407 77.687,89.892 77.687 C 90.927 77.687,90.893 76.566,89.772 73.713 C 88.891 71.474,88.409 67.624,87.464 55.285 C 87.259 52.602,86.932 49.675,86.737 48.780 C 86.543 47.886,86.295 44.472,86.186 41.192 C 86.076 37.913,85.915 34.743,85.828 34.146 C 85.740 33.550,85.644 32.412,85.614 31.617 C 85.584 30.822,85.420 29.277,85.249 28.184 C 85.078 27.091,84.849 23.107,84.739 19.332 C 84.485 10.553,84.407 10.054,83.199 9.485 C 82.040 8.939,81.772 8.925,81.481 9.395 M161.388 11.656 C 162.435 13.242,163.156 14.939,163.882 17.525 C 164.217 18.717,164.709 20.343,164.977 21.138 C 168.603 31.916,167.928 59.621,164.039 59.621 C 163.673 59.621,163.270 59.295,163.144 58.898 C 163.017 58.500,162.793 58.175,162.644 58.175 C 161.742 58.175,159.006 51.123,158.264 46.886 C 158.046 45.643,157.645 43.487,157.373 42.096 C 156.158 35.879,156.367 21.882,157.765 15.856 C 158.059 14.588,158.397 13.071,158.515 12.486 C 158.969 10.238,160.215 9.878,161.388 11.656 M294.409 10.900 C 294.310 11.165,294.366 12.507,294.533 13.883 C 294.701 15.258,294.812 26.396,294.780 38.634 C 294.740 54.113,294.847 61.380,295.130 62.511 C 295.354 63.406,295.814 65.209,296.153 66.518 L 296.768 68.899 295.298 72.078 C 293.336 76.317,293.251 76.198,298.826 76.977 C 300.117 77.157,301.906 77.407,302.800 77.533 C 303.695 77.659,304.581 77.907,304.770 78.086 C 304.958 78.264,305.516 78.410,306.009 78.410 C 306.933 78.410,309.009 78.981,310.113 79.538 C 310.458 79.713,311.302 79.855,311.988 79.855 C 312.675 79.855,313.326 80.000,313.435 80.177 C 313.636 80.501,314.995 80.801,317.977 81.179 C 318.871 81.292,320.034 81.691,320.562 82.066 C 321.089 82.440,321.771 82.746,322.076 82.746 C 322.381 82.746,322.732 82.909,322.855 83.107 C 322.977 83.306,323.442 83.469,323.888 83.469 C 324.333 83.469,324.852 83.603,325.041 83.767 C 325.229 83.932,326.034 84.249,326.829 84.472 C 331.618 85.818,331.787 85.716,331.663 81.539 C 331.609 79.719,331.679 75.872,331.818 72.990 C 331.958 70.108,332.167 64.663,332.283 60.890 C 332.514 53.362,332.496 53.468,333.480 53.726 C 334.336 53.949,334.509 54.877,334.782 60.705 C 334.898 63.189,335.071 66.116,335.166 67.209 C 335.260 68.302,335.485 71.554,335.665 74.435 C 336.515 88.063,340.456 91.949,346.040 84.670 C 346.471 84.109,347.255 83.162,347.782 82.565 C 348.310 81.969,348.888 81.116,349.068 80.668 C 349.468 79.674,350.369 79.606,350.668 80.547 C 351.157 82.090,349.659 85.268,347.161 87.986 C 346.040 89.205,345.968 89.481,346.612 90.089 C 347.170 90.615,350.297 91.811,351.762 92.058 C 352.358 92.158,352.933 92.375,353.040 92.540 C 353.147 92.704,354.236 92.878,355.461 92.926 C 358.483 93.046,358.768 92.714,360.607 86.949 C 361.150 85.248,361.132 75.618,360.581 73.098 C 360.373 72.144,360.061 70.267,359.889 68.926 C 359.716 67.586,359.472 66.323,359.347 66.120 C 359.221 65.917,358.973 64.494,358.794 62.957 C 358.616 61.420,358.317 59.432,358.129 58.540 C 357.942 57.647,357.873 56.781,357.976 56.614 C 358.236 56.194,361.657 56.701,362.918 57.347 L 363.956 57.879 363.718 68.054 C 363.332 84.502,362.857 90.140,361.649 92.626 L 360.807 94.359 361.704 95.049 C 362.198 95.428,362.854 95.742,363.162 95.746 C 363.470 95.751,363.876 95.888,364.065 96.051 C 364.254 96.214,365.628 96.732,367.118 97.202 C 368.609 97.672,369.991 98.171,370.190 98.310 C 370.388 98.449,371.266 98.681,372.140 98.826 L 373.729 99.088 373.463 96.247 C 372.945 90.721,372.925 88.683,373.264 76.653 C 373.453 69.968,373.700 60.352,373.813 55.285 C 373.926 50.217,374.192 42.900,374.404 39.024 C 374.956 28.913,374.958 29.208,374.345 28.916 C 374.047 28.774,373.439 28.470,372.995 28.240 C 372.551 28.011,371.778 27.823,371.279 27.823 C 370.779 27.823,370.370 27.660,370.370 27.462 C 370.370 27.263,369.973 27.100,369.488 27.100 C 369.003 27.100,368.506 26.938,368.383 26.739 C 368.260 26.540,367.691 26.378,367.118 26.378 C 366.546 26.378,365.976 26.215,365.854 26.016 C 365.731 25.818,365.313 25.655,364.924 25.655 C 364.536 25.655,363.895 25.492,363.500 25.294 C 363.105 25.095,362.459 24.770,362.065 24.571 C 361.670 24.372,360.866 24.210,360.279 24.210 C 359.692 24.210,359.111 24.047,358.988 23.848 C 358.865 23.650,358.287 23.487,357.702 23.487 C 357.118 23.487,356.640 23.342,356.640 23.165 C 356.640 22.862,355.808 22.659,352.575 22.170 C 350.944 21.924,350.948 21.886,352.304 24.571 C 353.706 27.349,353.681 28.162,352.153 29.553 C 351.474 30.171,350.813 31.010,350.683 31.417 C 350.554 31.825,350.316 32.159,350.153 32.159 C 349.720 32.159,347.964 36.015,347.377 38.256 C 346.051 43.326,346.499 54.567,348.313 61.728 C 348.901 64.047,349.558 67.275,349.773 68.902 C 349.988 70.529,350.395 72.966,350.678 74.318 C 351.434 77.932,349.812 78.386,347.711 75.149 C 347.263 74.458,346.754 73.722,346.580 73.512 C 346.211 73.068,345.831 70.734,345.567 67.296 C 345.464 65.956,345.231 62.909,345.049 60.524 C 344.480 53.065,344.429 52.635,343.823 50.088 C 343.498 48.720,342.744 46.634,342.148 45.453 C 341.096 43.369,341.081 41.233,342.116 40.764 C 342.475 40.601,343.770 38.698,344.529 37.218 C 344.886 36.522,345.286 35.872,345.418 35.772 C 348.037 33.801,348.204 20.596,345.609 20.596 C 345.404 20.596,345.002 20.271,344.715 19.874 C 344.429 19.476,343.905 19.151,343.552 19.151 C 343.198 19.151,342.907 19.029,342.906 18.880 C 342.901 18.416,341.014 17.706,339.787 17.706 C 339.142 17.706,338.530 17.567,338.425 17.397 C 338.320 17.228,337.050 16.978,335.603 16.842 C 334.156 16.706,331.996 16.434,330.804 16.237 C 323.657 15.057,322.036 15.069,322.695 16.299 C 322.928 16.735,323.010 18.392,322.904 20.523 C 322.677 25.106,322.043 44.879,321.779 55.646 C 321.581 63.757,321.098 73.521,320.660 78.284 C 320.449 80.579,319.319 81.804,318.818 80.279 C 318.709 79.947,318.033 78.222,317.316 76.447 C 315.785 72.656,315.589 70.031,316.670 67.774 C 317.472 66.101,318.267 56.924,318.363 48.238 C 318.535 32.753,318.657 27.894,318.997 22.945 C 319.202 19.964,319.556 17.037,319.783 16.441 C 320.010 15.845,320.195 15.301,320.194 15.234 C 320.189 14.808,318.705 14.113,317.778 14.104 C 317.172 14.097,316.521 13.945,316.332 13.764 C 316.144 13.584,315.095 13.341,314.002 13.226 C 309.119 12.709,309.670 12.557,309.636 14.425 C 309.568 18.137,309.334 27.693,309.152 34.146 C 309.046 37.922,308.869 45.158,308.760 50.226 C 308.411 66.419,308.314 67.054,306.288 66.276 C 304.988 65.778,304.875 63.659,304.752 37.622 C 304.614 8.480,305.056 11.459,300.813 11.048 C 299.422 10.914,297.453 10.717,296.437 10.611 C 295.089 10.470,294.542 10.548,294.409 10.900 M131.733 11.718 C 132.555 12.540,131.688 18.428,130.745 18.428 C 130.579 18.428,130.443 18.729,130.443 19.096 C 130.443 19.463,130.122 20.132,129.731 20.584 C 129.339 21.035,128.922 21.711,128.803 22.084 C 128.266 23.775,126.914 22.889,126.669 20.687 C 126.319 17.534,126.133 12.277,126.351 11.707 C 126.624 10.997,131.021 11.006,131.733 11.718 M47.335 16.587 C 47.037 16.743,46.429 17.058,45.985 17.288 C 45.541 17.518,44.697 17.706,44.109 17.706 C 43.522 17.706,42.941 17.868,42.818 18.067 C 42.696 18.266,42.203 18.428,41.724 18.428 C 41.245 18.428,40.274 18.753,39.566 19.151 C 38.859 19.548,37.797 19.874,37.207 19.874 C 36.617 19.874,36.134 20.036,36.134 20.235 C 36.134 20.434,35.483 20.596,34.688 20.596 C 33.893 20.596,33.243 20.759,33.243 20.958 C 33.243 21.156,32.836 21.319,32.340 21.319 C 31.843 21.319,31.436 21.446,31.436 21.601 C 31.436 21.757,30.713 22.097,29.829 22.358 C 27.893 22.930,27.729 23.287,28.669 24.880 C 29.537 26.351,30.306 30.379,30.335 33.604 C 30.347 34.896,30.504 36.522,30.684 37.218 C 30.864 37.913,31.103 39.702,31.216 41.192 C 31.329 42.683,31.586 45.610,31.788 47.696 C 31.990 49.783,32.246 53.198,32.358 55.285 C 32.470 57.371,32.626 59.322,32.704 59.621 C 32.782 59.919,32.954 62.927,33.087 66.305 C 33.219 69.684,33.393 72.773,33.472 73.171 C 33.703 74.319,34.429 86.587,34.470 90.033 C 34.491 91.755,34.632 93.288,34.783 93.440 C 35.180 93.838,39.457 93.660,39.889 93.228 C 40.089 93.028,40.708 92.864,41.265 92.864 C 41.821 92.864,42.276 92.701,42.276 92.502 C 42.276 92.304,42.764 92.141,43.360 92.141 C 43.957 92.141,44.444 91.978,44.444 91.780 C 44.444 91.581,44.770 91.418,45.167 91.418 C 45.565 91.418,45.890 91.256,45.890 91.057 C 45.890 90.858,46.378 90.696,46.974 90.696 C 47.570 90.696,48.058 90.533,48.058 90.334 C 48.058 90.136,48.464 89.973,48.961 89.973 C 49.458 89.973,49.864 89.810,49.864 89.612 C 49.864 89.413,50.271 89.250,50.768 89.250 C 51.265 89.250,51.671 89.088,51.671 88.889 C 51.671 88.690,51.987 88.528,52.373 88.528 C 52.758 88.528,53.174 88.365,53.297 88.166 C 53.420 87.967,53.917 87.805,54.403 87.805 C 54.888 87.805,55.285 87.642,55.285 87.444 C 55.285 87.245,55.689 87.082,56.184 87.082 C 58.620 87.082,58.918 85.056,57.780 76.242 C 57.101 70.991,57.061 70.967,54.108 74.074 C 52.975 75.266,51.882 76.242,51.679 76.242 C 51.476 76.242,51.310 76.405,51.310 76.603 C 51.310 76.802,50.897 76.965,50.391 76.965 C 49.886 76.965,49.124 77.290,48.697 77.687 C 48.271 78.085,47.708 78.410,47.448 78.410 C 47.187 78.410,46.974 78.573,46.974 78.771 C 46.974 78.970,46.658 79.133,46.272 79.133 C 45.887 79.133,45.471 79.295,45.348 79.494 C 45.019 80.027,43.514 79.933,43.030 79.350 C 41.746 77.804,41.164 65.078,42.231 61.867 C 44.100 56.236,45.103 55.485,51.848 54.671 C 55.187 54.268,56.049 52.449,55.669 46.612 C 55.508 44.149,53.185 42.521,52.575 44.444 C 52.448 44.842,52.112 45.167,51.828 45.167 C 51.543 45.167,51.310 45.330,51.310 45.528 C 51.310 45.727,50.741 45.890,50.045 45.890 C 49.350 45.890,48.780 46.052,48.780 46.251 C 48.780 46.450,48.374 46.612,47.877 46.612 C 47.380 46.612,46.974 46.775,46.974 46.974 C 46.974 47.173,46.603 47.335,46.150 47.335 C 45.697 47.335,45.092 47.660,44.806 48.058 C 44.519 48.455,44.077 48.780,43.823 48.780 C 43.568 48.780,43.360 48.943,43.360 49.142 C 43.360 49.341,43.157 49.504,42.909 49.504 C 42.660 49.505,42.132 49.992,41.734 50.587 C 40.359 52.647,39.747 52.064,39.744 48.690 C 39.742 47.051,39.512 43.758,39.232 41.373 C 37.829 29.434,38.078 27.100,40.753 27.100 C 41.359 27.100,41.919 26.907,41.998 26.671 C 42.100 26.365,43.544 26.253,47.026 26.281 L 51.911 26.320 51.763 22.464 C 51.533 16.449,50.419 14.971,47.335 16.587 M20.958 25.249 C 19.254 26.171,18.731 26.378,18.093 26.378 C 17.705 26.378,17.286 26.540,17.164 26.739 C 17.041 26.938,16.543 27.100,16.058 27.100 C 15.573 27.100,15.176 27.263,15.176 27.462 C 15.176 27.660,14.783 27.823,14.303 27.823 C 13.823 27.823,13.375 27.946,13.309 28.096 C 13.243 28.245,12.051 28.928,10.659 29.613 C 9.268 30.298,7.698 31.151,7.171 31.509 C 6.643 31.866,5.881 32.159,5.476 32.159 C 5.071 32.159,4.640 32.322,4.517 32.520 C 4.394 32.719,3.978 32.882,3.592 32.882 C 3.206 32.882,2.891 33.044,2.891 33.243 C 2.891 33.442,2.606 33.610,2.258 33.616 C 0.323 33.651,0.313 36.495,2.247 36.495 C 2.421 36.495,2.988 36.921,3.508 37.441 L 4.453 38.386 3.816 40.964 C 3.466 42.381,2.867 44.488,2.484 45.645 C 0.698 51.052,-0.208 63.028,0.733 68.802 C 2.025 76.741,6.562 89.847,9.154 93.131 C 10.446 94.769,13.068 97.200,13.542 97.200 C 13.845 97.200,14.092 97.337,14.092 97.504 C 14.092 97.885,16.798 99.227,18.248 99.564 C 20.288 100.039,24.571 100.170,24.571 99.758 C 24.571 99.543,24.898 99.368,25.297 99.368 C 27.371 99.368,30.193 94.775,30.839 90.346 C 31.615 85.023,31.079 70.155,30.074 69.150 C 29.509 68.585,26.316 68.806,26.076 69.426 C 26.010 69.598,25.654 69.738,25.285 69.738 C 24.916 69.738,24.513 69.901,24.390 70.099 C 24.267 70.298,23.884 70.461,23.538 70.461 C 21.417 70.461,20.275 72.007,20.799 74.169 C 21.301 76.239,21.189 84.612,20.643 85.908 C 20.203 86.951,19.988 87.082,18.720 87.082 C 17.243 87.082,16.956 86.894,15.687 85.085 C 14.200 82.967,14.246 83.102,11.543 73.099 C 10.796 70.335,10.128 65.341,10.345 64.137 C 10.416 63.740,10.305 62.473,10.097 61.321 C 9.833 59.862,9.834 58.165,10.098 55.720 C 10.307 53.791,10.647 50.265,10.855 47.883 C 11.673 38.485,13.948 35.140,15.282 41.373 C 16.708 48.036,21.255 52.582,25.442 51.531 C 26.278 51.321,26.816 50.226,26.083 50.226 C 24.250 50.226,22.655 39.170,23.502 32.340 C 23.749 30.352,23.968 27.913,23.990 26.920 L 24.029 25.113 22.764 25.034 C 22.069 24.991,21.256 25.088,20.958 25.249 M337.912 26.253 C 339.156 27.379,338.660 30.021,336.632 33.062 C 336.102 33.857,335.469 34.807,335.224 35.174 C 332.979 38.533,332.430 37.987,332.430 32.396 C 332.430 25.619,332.416 25.655,335.066 25.655 C 336.592 25.655,337.450 25.835,337.912 26.253 M377.787 35.863 C 377.797 38.695,377.693 45.239,377.556 50.407 C 377.419 55.574,377.201 65.574,377.071 72.629 C 376.765 89.254,376.072 97.228,374.825 98.475 C 374.144 99.156,374.431 99.575,376.077 100.299 C 379.006 101.587,380.698 102.352,381.296 102.659 C 381.641 102.836,382.251 102.981,382.651 102.981 C 383.051 102.981,383.379 103.144,383.379 103.342 C 383.379 103.541,383.624 103.704,383.924 103.704 C 384.423 103.704,386.986 104.727,388.523 105.540 C 388.868 105.722,389.381 105.872,389.663 105.872 C 390.105 105.872,391.252 106.368,393.943 107.724 C 395.392 108.454,397.361 108.102,397.735 107.046 C 400.360 99.634,400.351 93.915,397.698 84.192 C 396.709 80.567,396.498 77.746,397.127 76.571 C 398.094 74.763,395.873 74.301,394.239 75.971 C 391.715 78.550,390.823 82.950,391.692 88.528 C 391.925 90.018,392.194 92.416,392.292 93.857 L 392.469 96.477 391.378 96.477 C 390.778 96.477,390.186 96.314,390.063 96.116 C 389.940 95.917,389.599 95.754,389.303 95.754 C 389.008 95.754,388.365 95.381,387.873 94.925 L 386.978 94.096 386.741 82.730 C 386.179 55.878,386.838 41.345,388.785 37.664 C 389.720 35.895,389.547 35.478,387.551 34.695 C 386.846 34.418,386.269 34.060,386.269 33.898 C 386.269 33.737,385.985 33.601,385.637 33.596 C 385.289 33.592,384.598 33.270,384.101 32.882 C 383.604 32.493,382.918 32.171,382.576 32.167 C 382.235 32.163,381.376 31.834,380.668 31.436 C 377.875 29.867,377.766 30.034,377.787 35.863 M362.878 32.576 C 363.322 32.806,363.921 33.103,364.209 33.236 C 365.308 33.745,365.231 39.310,364.024 46.703 C 363.801 48.071,362.153 48.724,361.518 47.696 C 361.395 47.498,360.831 47.335,360.266 47.335 C 357.994 47.335,356.374 45.991,356.111 43.887 C 355.874 41.985,356.452 37.564,356.984 37.219 C 357.139 37.119,357.625 36.327,358.065 35.459 C 359.600 32.432,360.989 31.601,362.878 32.576 " stroke="none" fill="#000000" fill-rule="evenodd"></path></g></svg>